<?xml version="1.0" encoding="utf-8"?>
<!-- Generator: Adobe Illustrator 16.2.1, SVG Export Plug-In . SVG Version: 6.00 Build 0)  -->
<!DOCTYPE svg PUBLIC "-//W3C//DTD SVG 1.1//EN" "http://www.w3.org/Graphics/SVG/1.1/DTD/svg11.dtd">
<svg version="1.1" id="Livello_1" xmlns="http://www.w3.org/2000/svg" xmlns:xlink="http://www.w3.org/1999/xlink" x="0px" y="0px"
	 width="786.488px" height="133.785px" viewBox="0 0 786.488 133.785" enable-background="new 0 0 786.488 133.785"
	 xml:space="preserve">
<g>
	<path fill="#333333" d="M127.544,68.199c3.332,2.051,8.2,3.758,13.325,3.758c7.603,0,12.044-4.015,12.044-9.823
		c0-5.381-3.075-8.456-10.848-11.446c-9.396-3.331-15.204-8.2-15.204-16.314c0-8.97,7.431-15.632,18.621-15.632
		c5.894,0,10.165,1.366,12.728,2.818l-2.05,6.065c-1.879-1.025-5.723-2.733-10.934-2.733c-7.858,0-10.848,4.697-10.848,8.627
		c0,5.382,3.502,8.029,11.446,11.104c9.737,3.759,14.692,8.456,14.692,16.913c0,8.883-6.577,16.571-20.159,16.571
		c-5.552,0-11.617-1.623-14.692-3.673L127.544,68.199z"/>
	<path fill="#333333" d="M193.571,77.253l-0.598-5.211h-0.256c-2.306,3.246-6.748,6.149-12.642,6.149
		c-8.371,0-12.642-5.894-12.642-11.873c0-9.994,8.883-15.461,24.857-15.375V50.09c0-3.417-0.94-9.567-9.396-9.567
		c-3.844,0-7.858,1.196-10.763,3.075l-1.708-4.954c3.417-2.221,8.371-3.673,13.582-3.673c12.642,0,15.717,8.627,15.717,16.913
		v15.461c0,3.587,0.171,7.09,0.684,9.909H193.571z M192.46,56.154c-8.2-0.171-17.511,1.281-17.511,9.311
		c0,4.869,3.246,7.176,7.09,7.176c5.381,0,8.798-3.417,9.994-6.919c0.256-0.77,0.427-1.623,0.427-2.392V56.154z"/>
	<path fill="#333333" d="M211.849,16.605h7.517v60.646h-7.517V16.605z"/>
	<path fill="#333333" d="M234.911,35.91l8.115,23.234c1.367,3.758,2.478,7.175,3.332,10.592h0.256
		c0.938-3.417,2.135-6.834,3.502-10.592l8.029-23.234h7.859l-16.23,41.343h-7.175L226.882,35.91H234.911z"/>
	<path fill="#333333" d="M295.643,77.253l-0.598-5.211h-0.256c-2.306,3.246-6.748,6.149-12.642,6.149
		c-8.371,0-12.642-5.894-12.642-11.873c0-9.994,8.883-15.461,24.857-15.375V50.09c0-3.417-0.94-9.567-9.396-9.567
		c-3.844,0-7.859,1.196-10.763,3.075l-1.708-4.954c3.417-2.221,8.371-3.673,13.582-3.673c12.642,0,15.717,8.627,15.717,16.913
		v15.461c0,3.587,0.171,7.09,0.684,9.909H295.643z M294.532,56.154c-8.2-0.171-17.511,1.281-17.511,9.311
		c0,4.869,3.246,7.176,7.09,7.176c5.381,0,8.798-3.417,9.994-6.919c0.256-0.77,0.427-1.623,0.427-2.392V56.154z"/>
	<path fill="#333333" d="M322.634,24.037V35.91h10.763v5.724h-10.763v22.294c0,5.125,1.452,8.029,5.638,8.029
		c1.964,0,3.417-0.256,4.356-0.513l0.342,5.638c-1.452,0.599-3.758,1.025-6.663,1.025c-3.502,0-6.321-1.109-8.115-3.161
		c-2.135-2.221-2.904-5.894-2.904-10.763v-22.55h-6.406V35.91h6.406v-9.908L322.634,24.037z"/>
	<path fill="#333333" d="M378.753,56.24c0,15.291-10.592,21.952-20.586,21.952c-11.19,0-19.817-8.2-19.817-21.27
		c0-13.838,9.054-21.952,20.5-21.952C370.724,34.971,378.753,43.598,378.753,56.24z M345.952,56.667
		c0,9.055,5.21,15.888,12.557,15.888c7.175,0,12.557-6.748,12.557-16.059c0-7.004-3.502-15.888-12.386-15.888
		C349.796,40.608,345.952,48.809,345.952,56.667z"/>
	<path fill="#333333" d="M388.233,48.809c0-4.869-0.085-9.055-0.341-12.898h6.576l0.257,8.115h0.341
		c1.879-5.553,6.406-9.055,11.447-9.055c0.854,0,1.451,0.085,2.135,0.256v7.09c-0.77-0.171-1.537-0.256-2.562-0.256
		c-5.295,0-9.053,4.015-10.078,9.652c-0.172,1.024-0.342,2.221-0.342,3.502v22.039h-7.433V48.809L388.233,48.809z"/>
	<path fill="#333333" d="M419.496,57.948c0.172,10.165,6.664,14.35,14.18,14.35c5.383,0,8.627-0.938,11.447-2.135l1.281,5.381
		c-2.648,1.195-7.178,2.562-13.754,2.562c-12.727,0-20.328-8.371-20.328-20.843c0-12.471,7.346-22.294,19.389-22.294
		c13.496,0,17.084,11.873,17.084,19.476c0,1.537-0.17,2.733-0.256,3.502H419.496z M441.535,52.567
		c0.086-4.784-1.965-12.215-10.422-12.215c-7.604,0-10.934,7.004-11.531,12.215H441.535z"/>
	<path fill="#333333" d="M458.361,19.681h7.432v51.337h24.6v6.235h-32.029V19.681H458.361z"/>
	<path fill="#333333" d="M521.312,77.253l-0.598-5.211h-0.258c-2.307,3.246-6.748,6.149-12.643,6.149
		c-8.369,0-12.643-5.894-12.643-11.873c0-9.994,8.885-15.461,24.857-15.375V50.09c0-3.417-0.939-9.567-9.396-9.567
		c-3.844,0-7.857,1.196-10.762,3.075l-1.709-4.954c3.418-2.221,8.371-3.673,13.582-3.673c12.643,0,15.717,8.627,15.717,16.913
		v15.461c0,3.587,0.172,7.09,0.684,9.909H521.312z M520.203,56.154c-8.201-0.171-17.512,1.281-17.512,9.311
		c0,4.869,3.244,7.176,7.09,7.176c5.381,0,8.799-3.417,9.994-6.919c0.256-0.77,0.428-1.623,0.428-2.392V56.154z"/>
	<path fill="#333333" d="M547.96,24.293c0.086,2.562-1.793,4.613-4.783,4.613c-2.646,0-4.525-2.051-4.525-4.613
		c0-2.647,1.965-4.697,4.697-4.697C546.167,19.596,547.96,21.646,547.96,24.293z M539.589,77.253V35.91h7.518v41.343H539.589z"/>
	<path fill="#333333" d="M558.552,69.565c2.223,1.452,6.15,2.989,9.908,2.989c5.467,0,8.029-2.733,8.029-6.15
		c0-3.587-2.137-5.552-7.688-7.602c-7.432-2.648-10.934-6.748-10.934-11.702c0-6.663,5.381-12.13,14.264-12.13
		c4.188,0,7.859,1.196,10.166,2.562L580.419,43c-1.623-1.025-4.613-2.392-8.457-2.392c-4.439,0-6.918,2.562-6.918,5.638
		c0,3.417,2.479,4.954,7.857,7.004c7.176,2.733,10.85,6.321,10.85,12.472c0,7.261-5.639,12.386-15.461,12.386
		c-4.527,0-8.713-1.11-11.617-2.819L558.552,69.565z"/>
	<path fill="#333333" d="M616.294,77.253l-0.598-5.211h-0.258c-2.307,3.246-6.748,6.149-12.643,6.149
		c-8.371,0-12.643-5.894-12.643-11.873c0-9.994,8.885-15.461,24.857-15.375V50.09c0-3.417-0.939-9.567-9.396-9.567
		c-3.844,0-7.857,1.196-10.764,3.075l-1.707-4.954c3.416-2.221,8.371-3.673,13.58-3.673c12.645,0,15.719,8.627,15.719,16.913v15.461
		c0,3.587,0.172,7.09,0.684,9.909H616.294z M615.183,56.154c-8.199-0.171-17.51,1.281-17.51,9.311c0,4.869,3.244,7.176,7.09,7.176
		c5.381,0,8.797-3.417,9.992-6.919c0.258-0.77,0.428-1.623,0.428-2.392V56.154z"/>
	<path fill="#333333" d="M632.779,72.812c0-3.161,2.137-5.382,5.127-5.382c2.988,0,5.039,2.221,5.039,5.382
		c0,3.074-1.967,5.381-5.125,5.381C634.83,78.192,632.779,75.886,632.779,72.812z"/>
	<path fill="#333333" d="M652.251,47.101c0-4.271-0.084-7.773-0.342-11.19h6.664L659,42.744h0.172
		c2.049-3.93,6.834-7.773,13.666-7.773c5.725,0,14.607,3.417,14.607,17.597v24.686h-7.518V53.421c0-6.662-2.477-12.215-9.566-12.215
		c-4.955,0-8.799,3.502-10.08,7.688c-0.342,0.94-0.514,2.222-0.514,3.503v24.856h-7.516V47.101L652.251,47.101z"/>
	<path fill="#333333" d="M703.843,57.948c0.172,10.165,6.664,14.35,14.182,14.35c5.381,0,8.627-0.938,11.445-2.135l1.281,5.381
		c-2.648,1.195-7.176,2.562-13.754,2.562c-12.727,0-20.328-8.371-20.328-20.843c0-12.471,7.346-22.294,19.389-22.294
		c13.496,0,17.084,11.873,17.084,19.476c0,1.537-0.17,2.733-0.256,3.502H703.843z M725.882,52.567
		c0.086-4.784-1.965-12.215-10.422-12.215c-7.602,0-10.934,7.004-11.531,12.215H725.882z"/>
	<path fill="#333333" d="M751.507,24.037V35.91h10.762v5.724h-10.762v22.294c0,5.125,1.451,8.029,5.637,8.029
		c1.967,0,3.418-0.256,4.357-0.513l0.342,5.638c-1.453,0.599-3.76,1.025-6.664,1.025c-3.502,0-6.32-1.109-8.113-3.161
		c-2.137-2.221-2.904-5.894-2.904-10.763v-22.55h-6.406V35.91h6.406v-9.908L751.507,24.037z"/>
</g>
<g>
	
		<linearGradient id="SVGID_1_" gradientUnits="userSpaceOnUse" x1="-197.4038" y1="153.3921" x2="-156.1394" y2="204.4984" gradientTransform="matrix(1 0 0 -1 244 228.7842)">
		<stop  offset="0" style="stop-color:#D572AD"/>
		<stop  offset="0.5" style="stop-color:#C7158C"/>
		<stop  offset="1" style="stop-color:#9C248E"/>
	</linearGradient>
	<path fill="url(#SVGID_1_)" d="M78.994,39.316C57.009,17.334,31.587,7.113,22.208,16.493c-9.375,9.374,0.845,34.8,22.822,56.782
		c21.986,21.982,47.407,32.203,56.792,22.824C111.196,86.726,100.974,61.299,78.994,39.316z M97.864,91.36
		c-7.146,7.146-26.526-0.64-43.281-17.396C37.828,57.206,30.034,37.831,37.187,30.677c7.145-7.145,26.523,0.646,43.281,17.4
		C97.222,64.836,105.013,84.212,97.864,91.36z"/>
	
		<linearGradient id="SVGID_2_" gradientUnits="userSpaceOnUse" x1="-4.9502" y1="842.2095" x2="25.1701" y2="879.5137" gradientTransform="matrix(0.4664 -0.8846 -0.8846 -0.4664 822.5989 483.7534)">
		<stop  offset="0" style="stop-color:#2AC3F2"/>
		<stop  offset="0.5" style="stop-color:#00AEEE"/>
		<stop  offset="1" style="stop-color:#0096DA"/>
	</linearGradient>
	<path fill="url(#SVGID_2_)" d="M63.01,62.123C41.331,68.835,26.077,81.771,28.938,91.02c2.864,9.246,22.759,11.302,44.437,4.597
		c21.674-6.709,36.93-19.648,34.069-28.895C104.582,57.47,84.688,55.421,63.01,62.123z M102.72,67.755
		c2.446,7.9-10.585,18.955-29.1,24.685c-18.521,5.731-35.52,3.978-37.965-3.927c-2.446-7.898,10.586-18.951,29.106-24.682
		C83.282,58.099,100.28,59.856,102.72,67.755z"/>
	
		<linearGradient id="SVGID_3_" gradientUnits="userSpaceOnUse" x1="1075.6577" y1="752.2397" x2="1089.9918" y2="769.9927" gradientTransform="matrix(-0.9426 -0.334 -0.334 0.9426 1342.3944 -271.5092)">
		<stop  offset="0" style="stop-color:#F79453"/>
		<stop  offset="0.5" style="stop-color:#F47521"/>
		<stop  offset="1" style="stop-color:#D5622A"/>
	</linearGradient>
	<path fill="url(#SVGID_3_)" d="M63.556,86.433c5.987,14.281,13.71,24.211,17.252,22.176c3.536-2.038,1.551-15.27-4.436-29.55
		c-5.987-14.285-13.716-24.205-17.252-22.17C55.578,58.921,57.57,72.153,63.556,86.433z M60.244,60.002
		c3.02-1.737,9.62,6.737,14.735,18.944c5.116,12.197,6.815,23.5,3.79,25.241c-3.02,1.74-9.619-6.736-14.739-18.941
		C58.919,73.046,57.22,61.744,60.244,60.002z"/>
	
		<linearGradient id="SVGID_4_" gradientUnits="userSpaceOnUse" x1="-37.6372" y1="1325.8433" x2="-27.0874" y2="1338.9093" gradientTransform="matrix(0.4898 -0.8719 -0.4704 -0.2642 667.524 385.8185)">
		<stop  offset="0" style="stop-color:#5B57A5"/>
		<stop  offset="0.5" style="stop-color:#2E3091"/>
		<stop  offset="1" style="stop-color:#474373"/>
	</linearGradient>
	<path fill="url(#SVGID_4_)" d="M26.562,60.452c-2.412-0.718-5.039,0.13-5.876,1.876c-0.837,1.754,0.44,3.747,2.848,4.461
		c2.407,0.712,5.037-0.128,5.871-1.877C30.243,63.161,28.97,61.16,26.562,60.452z"/>
	
		<linearGradient id="SVGID_5_" gradientUnits="userSpaceOnUse" x1="-5.7671" y1="1170.7212" x2="0.4212" y2="1178.3854" gradientTransform="matrix(0.4898 -0.8719 -0.4704 -0.2642 667.524 385.8185)">
		<stop  offset="0" style="stop-color:#5B57A5"/>
		<stop  offset="0.5" style="stop-color:#2E3091"/>
		<stop  offset="1" style="stop-color:#474373"/>
	</linearGradient>
	<path fill="url(#SVGID_5_)" d="M114.666,76.914c-1.412-0.42-2.958,0.072-3.445,1.102c-0.493,1.023,0.253,2.197,1.666,2.613
		c1.417,0.422,2.952-0.069,3.45-1.102C116.824,78.503,116.077,77.332,114.666,76.914z"/>
	
		<linearGradient id="SVGID_6_" gradientUnits="userSpaceOnUse" x1="962.5347" y1="1365.2778" x2="966.9854" y2="1370.79" gradientTransform="matrix(-0.7977 -0.603 -0.3253 0.4304 1278.9248 12.0359)">
		<stop  offset="0" style="stop-color:#5B57A5"/>
		<stop  offset="0.5" style="stop-color:#2E3091"/>
		<stop  offset="1" style="stop-color:#474373"/>
	</linearGradient>
	<path fill="url(#SVGID_6_)" d="M63.742,18.312c-0.436,0.965-0.229,2.109,0.455,2.565c0.685,0.446,1.589,0.027,2.025-0.938
		c0.44-0.967,0.234-2.11-0.45-2.562C65.087,16.928,64.183,17.345,63.742,18.312z"/>
	
		<linearGradient id="SVGID_7_" gradientUnits="userSpaceOnUse" x1="904.6079" y1="1511.0054" x2="909.0591" y2="1516.5183" gradientTransform="matrix(-0.7977 -0.603 -0.3253 0.4304 1278.9248 12.0359)">
		<stop  offset="0" style="stop-color:#5B57A5"/>
		<stop  offset="0.5" style="stop-color:#2E3091"/>
		<stop  offset="1" style="stop-color:#474373"/>
	</linearGradient>
	<path fill="url(#SVGID_7_)" d="M62.555,115.962c-0.435,0.97-0.233,2.117,0.445,2.564c0.689,0.447,1.594,0.031,2.029-0.938
		c0.436-0.965,0.235-2.108-0.449-2.562C63.896,114.582,62.987,114.998,62.555,115.962z"/>
	
		<linearGradient id="SVGID_8_" gradientUnits="userSpaceOnUse" x1="887.5679" y1="1467.4048" x2="890.1323" y2="1470.5808" gradientTransform="matrix(-0.7977 -0.603 -0.3253 0.4304 1278.9248 12.0359)">
		<stop  offset="0" style="stop-color:#5B57A5"/>
		<stop  offset="0.5" style="stop-color:#2E3091"/>
		<stop  offset="1" style="stop-color:#474373"/>
	</linearGradient>
	<path fill="url(#SVGID_8_)" d="M91.704,107.873c-0.249,0.555-0.134,1.219,0.254,1.469c0.402,0.264,0.919,0.02,1.168-0.535
		c0.253-0.557,0.139-1.213-0.254-1.475S91.958,107.312,91.704,107.873z"/>
	
		<linearGradient id="SVGID_9_" gradientUnits="userSpaceOnUse" x1="936.3696" y1="1407.4663" x2="938.9327" y2="1410.6409" gradientTransform="matrix(-0.7977 -0.603 -0.3253 0.4304 1278.9248 12.0359)">
		<stop  offset="0" style="stop-color:#5B57A5"/>
		<stop  offset="0.5" style="stop-color:#2E3091"/>
		<stop  offset="1" style="stop-color:#474373"/>
	</linearGradient>
	<path fill="url(#SVGID_9_)" d="M72.266,52.645c-0.249,0.553-0.129,1.218,0.259,1.472c0.397,0.261,0.918,0.019,1.167-0.534
		c0.249-0.562,0.139-1.218-0.259-1.48C73.041,51.848,72.514,52.088,72.266,52.645z"/>
	
		<linearGradient id="SVGID_10_" gradientUnits="userSpaceOnUse" x1="939.6528" y1="1527.1636" x2="942.2169" y2="1530.3392" gradientTransform="matrix(-0.7977 -0.603 -0.3253 0.4304 1278.9248 12.0359)">
		<stop  offset="0" style="stop-color:#5B57A5"/>
		<stop  offset="0.5" style="stop-color:#2E3091"/>
		<stop  offset="1" style="stop-color:#474373"/>
	</linearGradient>
	<path fill="url(#SVGID_10_)" d="M30.711,102.183c-0.249,0.557-0.129,1.215,0.258,1.475c0.397,0.258,0.919,0.018,1.168-0.537
		c0.251-0.56,0.139-1.216-0.259-1.479C31.487,101.382,30.965,101.626,30.711,102.183z"/>
	
		<linearGradient id="SVGID_11_" gradientUnits="userSpaceOnUse" x1="-231.2515" y1="153.7378" x2="-140.8013" y2="153.7378" gradientTransform="matrix(1 0 0 -1 244 228.7842)">
		<stop  offset="0" style="stop-color:#FFE7A3"/>
		<stop  offset="0.5" style="stop-color:#FFCA05"/>
		<stop  offset="1" style="stop-color:#FAAC18"/>
	</linearGradient>
	<path fill="url(#SVGID_11_)" d="M40.711,57.217c-23.085,22.354-34.059,48.455-24.523,58.305c9.535,9.841,35.974-0.302,59.05-22.651
		c23.081-22.352,34.059-48.453,24.521-58.298C90.226,24.729,63.786,34.868,40.711,57.217z M94.461,38.897
		c8.145,8.414-1.23,30.714-20.947,49.808c-19.716,19.096-42.305,27.762-50.455,19.35c-8.145-8.407,1.232-30.708,20.951-49.805
		C63.728,39.152,86.316,30.49,94.461,38.897z"/>
</g>
<g>
	<path fill="#333333" d="M129.19,93.278v23.81h-3.073v-23.81H129.19z"/>
	<path fill="#333333" d="M148.692,117.087v-23.81h3.356l7.63,12.046c1.766,2.791,3.144,5.299,4.274,7.735l0.07-0.035
		c-0.282-3.179-0.353-6.075-0.353-9.784v-9.962h2.896v23.81h-3.108l-7.56-12.082c-1.66-2.648-3.25-5.369-4.451-7.946l-0.106,0.034
		c0.177,3.003,0.247,5.863,0.247,9.82v10.174H148.692z"/>
	<path fill="#333333" d="M190.591,95.893h-7.241v-2.614h17.626v2.614h-7.277v21.194h-3.108V95.893z"/>
	<path fill="#333333" d="M230.087,105.925h-9.255v8.582h10.314v2.58h-13.388v-23.81h12.858v2.579h-9.785v7.523h9.255
		L230.087,105.925L230.087,105.925z"/>
	<path fill="#333333" d="M249.272,93.597c1.554-0.318,3.78-0.495,5.899-0.495c3.285,0,5.404,0.601,6.888,1.942
		c1.201,1.061,1.872,2.686,1.872,4.521c0,3.145-1.978,5.229-4.486,6.075v0.106c1.837,0.635,2.932,2.33,3.497,4.803
		c0.777,3.32,1.342,5.617,1.837,6.535H261.6c-0.389-0.67-0.918-2.719-1.589-5.688c-0.707-3.285-1.979-4.521-4.769-4.627h-2.896
		v10.314h-3.073L249.272,93.597L249.272,93.597z M252.346,104.44h3.144c3.285,0,5.369-1.801,5.369-4.521
		c0-3.072-2.226-4.416-5.475-4.451c-1.484,0-2.543,0.143-3.038,0.283V104.44L252.346,104.44z"/>
	<path fill="#333333" d="M286.438,109.599l-2.473,7.488h-3.179l8.089-23.81h3.709l8.125,23.81h-3.285l-2.543-7.488H286.438z
		 M294.244,107.196l-2.332-6.853c-0.53-1.555-0.883-2.969-1.236-4.346h-0.071c-0.353,1.412-0.742,2.86-1.201,4.31l-2.331,6.889
		H294.244z"/>
	<path fill="#333333" d="M334.448,116.31c-1.13,0.564-3.391,1.131-6.288,1.131c-6.711,0-11.763-4.238-11.763-12.046
		c0-7.453,5.052-12.505,12.434-12.505c2.967,0,4.839,0.636,5.652,1.061l-0.742,2.508c-1.166-0.564-2.826-0.988-4.804-0.988
		c-5.581,0-9.29,3.566-9.29,9.82c0,5.828,3.356,9.571,9.149,9.571c1.872,0,3.78-0.389,5.016-0.989L334.448,116.31z"/>
	<path fill="#333333" d="M357.942,95.893h-7.241v-2.614h17.626v2.614h-7.277v21.194h-3.108V95.893z"/>
	<path fill="#333333" d="M388.184,93.278v23.81h-3.073v-23.81H388.184z"/>
	<path fill="#333333" d="M412.916,117.087l-7.771-23.81h3.32l3.709,11.728c1.023,3.216,1.906,6.111,2.543,8.902h0.07
		c0.672-2.756,1.66-5.758,2.721-8.867l4.025-11.763h3.285l-8.514,23.81H412.916z"/>
	<path fill="#333333" d="M453.859,105.925h-9.256v8.582h10.314v2.58h-13.387v-23.81h12.857v2.579h-9.785v7.523h9.256V105.925
		L453.859,105.925z"/>
	<path fill="#333333" d="M494.666,93.597c1.873-0.283,4.098-0.495,6.535-0.495c4.416,0,7.561,1.024,9.645,2.968
		c2.119,1.942,3.355,4.698,3.355,8.549c0,3.885-1.201,7.064-3.428,9.254c-2.225,2.227-5.898,3.428-10.525,3.428
		c-2.189,0-4.027-0.105-5.582-0.282V93.597z M497.74,114.649c0.775,0.142,1.906,0.177,3.107,0.177
		c6.57,0,10.139-3.674,10.139-10.103c0.035-5.616-3.145-9.185-9.645-9.185c-1.59,0-2.791,0.142-3.604,0.317v18.793H497.74z"/>
	<path fill="#333333" d="M544.654,105.925H535.4v8.582h10.312v2.58h-13.387v-23.81h12.857v2.579h-9.785v7.523h9.256V105.925
		L544.654,105.925z"/>
	<path fill="#333333" d="M563.416,113.343c1.377,0.848,3.391,1.554,5.51,1.554c3.145,0,4.98-1.66,4.98-4.062
		c0-2.227-1.271-3.498-4.486-4.733c-3.885-1.378-6.287-3.392-6.287-6.747c0-3.709,3.074-6.465,7.701-6.465
		c2.438,0,4.203,0.564,5.264,1.166l-0.848,2.508c-0.777-0.424-2.367-1.13-4.521-1.13c-3.25,0-4.486,1.942-4.486,3.567
		c0,2.226,1.447,3.319,4.732,4.592c4.027,1.555,6.076,3.496,6.076,6.994c0,3.674-2.721,6.854-8.336,6.854
		c-2.297,0-4.805-0.672-6.076-1.52L563.416,113.343z"/>
	<path fill="#333333" d="M598.46,93.278v23.81h-3.074v-23.81H598.46z"/>
	<path fill="#333333" d="M636.083,116.027c-1.377,0.494-4.098,1.307-7.312,1.307c-3.604,0-6.57-0.918-8.902-3.144
		c-2.049-1.979-3.32-5.157-3.32-8.866c0.035-7.101,4.91-12.293,12.895-12.293c2.756,0,4.91,0.602,5.936,1.096l-0.742,2.508
		c-1.271-0.564-2.861-1.023-5.264-1.023c-5.793,0-9.572,3.604-9.572,9.572c0,6.04,3.639,9.607,9.186,9.607
		c2.012,0,3.391-0.283,4.098-0.635v-7.102h-4.84v-2.473h7.842v11.445H636.083z"/>
	<path fill="#333333" d="M654.916,117.087v-23.81h3.355l7.631,12.046c1.766,2.791,3.145,5.299,4.273,7.735l0.07-0.035
		c-0.283-3.179-0.354-6.075-0.354-9.784v-9.962h2.896v23.81h-3.109l-7.559-12.082c-1.66-2.648-3.25-5.369-4.451-7.946l-0.105,0.034
		c0.178,3.003,0.246,5.863,0.246,9.82v10.174H654.916z"/>
	<path fill="#333333" d="M704.623,105.925h-9.256v8.582h10.314v2.58h-13.389v-23.81h12.859v2.579h-9.785v7.523h9.254v2.545H704.623z
		"/>
	<path fill="#333333" d="M723.806,93.597c1.555-0.318,3.779-0.495,5.898-0.495c3.285,0,5.404,0.601,6.889,1.942
		c1.201,1.061,1.871,2.686,1.871,4.521c0,3.145-1.977,5.229-4.484,6.075v0.106c1.838,0.635,2.932,2.33,3.496,4.803
		c0.777,3.32,1.344,5.617,1.838,6.535h-3.18c-0.389-0.67-0.918-2.719-1.59-5.688c-0.707-3.285-1.979-4.521-4.77-4.627h-2.896v10.314
		h-3.072V93.597z M726.878,104.44h3.145c3.285,0,5.369-1.801,5.369-4.521c0-3.072-2.225-4.416-5.475-4.451
		c-1.484,0-2.545,0.143-3.039,0.283V104.44z"/>
</g>
</svg>
